<mxfile host="app.diagrams.net" agent="Mozilla/5.0 (Macintosh; Intel Mac OS X 10.15; rv:133.0) Gecko/20100101 Firefox/133.0" version="25.0.3">
  <diagram name="Page-1" id="tFngWt_ABDTcB8sDBc1B">
    <mxGraphModel dx="1257" dy="685" grid="1" gridSize="10" guides="1" tooltips="1" connect="1" arrows="1" fold="1" page="1" pageScale="1" pageWidth="850" pageHeight="1100" math="0" shadow="0">
      <root>
        <mxCell id="0" />
        <mxCell id="1" parent="0" />
        <mxCell id="ML6KB4nxG-FTSVg3zZ-t-3" value="" style="rounded=0;whiteSpace=wrap;html=1;" vertex="1" parent="1">
          <mxGeometry x="160" y="360" width="530" height="350" as="geometry" />
        </mxCell>
        <mxCell id="ML6KB4nxG-FTSVg3zZ-t-2" value="&lt;div&gt;Bed&lt;/div&gt;" style="rounded=0;whiteSpace=wrap;html=1;aspect=fixed;" vertex="1" parent="1">
          <mxGeometry x="400" y="376" width="150.77" height="210" as="geometry" />
        </mxCell>
        <mxCell id="ML6KB4nxG-FTSVg3zZ-t-4" value="Mirror" style="rounded=0;whiteSpace=wrap;html=1;rotation=90;" vertex="1" parent="1">
          <mxGeometry x="615" y="618" width="100" height="50" as="geometry" />
        </mxCell>
        <mxCell id="ML6KB4nxG-FTSVg3zZ-t-5" value="" style="rounded=0;whiteSpace=wrap;html=1;" vertex="1" parent="1">
          <mxGeometry x="638" y="362" width="50" height="100" as="geometry" />
        </mxCell>
        <mxCell id="ML6KB4nxG-FTSVg3zZ-t-6" value="&lt;div&gt;&lt;br&gt;&lt;/div&gt;" style="rounded=0;whiteSpace=wrap;html=1;" vertex="1" parent="1">
          <mxGeometry x="165" y="542" width="140" height="65" as="geometry" />
        </mxCell>
        <mxCell id="ML6KB4nxG-FTSVg3zZ-t-7" value="" style="rounded=0;whiteSpace=wrap;html=1;" vertex="1" parent="1">
          <mxGeometry x="165" y="387" width="75" height="150" as="geometry" />
        </mxCell>
        <mxCell id="ML6KB4nxG-FTSVg3zZ-t-8" value="" style="ellipse;whiteSpace=wrap;html=1;aspect=fixed;fillColor=#e1d5e7;strokeColor=#9673a6;" vertex="1" parent="1">
          <mxGeometry x="590" y="668" width="40" height="40" as="geometry" />
        </mxCell>
        <mxCell id="ML6KB4nxG-FTSVg3zZ-t-9" value="" style="rounded=0;whiteSpace=wrap;html=1;" vertex="1" parent="1">
          <mxGeometry x="165" y="417" width="17" height="100" as="geometry" />
        </mxCell>
        <mxCell id="ML6KB4nxG-FTSVg3zZ-t-16" value="" style="group" vertex="1" connectable="0" parent="1">
          <mxGeometry x="655" y="466" width="20" height="120" as="geometry" />
        </mxCell>
        <mxCell id="ML6KB4nxG-FTSVg3zZ-t-11" value="" style="rounded=0;whiteSpace=wrap;html=1;" vertex="1" parent="ML6KB4nxG-FTSVg3zZ-t-16">
          <mxGeometry width="20" height="120" as="geometry" />
        </mxCell>
        <mxCell id="ML6KB4nxG-FTSVg3zZ-t-12" value="" style="ellipse;whiteSpace=wrap;html=1;aspect=fixed;fillColor=#dae8fc;strokeColor=#6c8ebf;" vertex="1" parent="ML6KB4nxG-FTSVg3zZ-t-16">
          <mxGeometry x="3" y="2.5" width="14" height="14" as="geometry" />
        </mxCell>
        <mxCell id="ML6KB4nxG-FTSVg3zZ-t-13" value="" style="ellipse;whiteSpace=wrap;html=1;aspect=fixed;fillColor=#dae8fc;strokeColor=#6c8ebf;" vertex="1" parent="ML6KB4nxG-FTSVg3zZ-t-16">
          <mxGeometry x="3" y="70" width="14" height="14" as="geometry" />
        </mxCell>
        <mxCell id="ML6KB4nxG-FTSVg3zZ-t-14" value="" style="ellipse;whiteSpace=wrap;html=1;aspect=fixed;fillColor=#dae8fc;strokeColor=#6c8ebf;" vertex="1" parent="ML6KB4nxG-FTSVg3zZ-t-16">
          <mxGeometry x="3" y="36" width="14" height="14" as="geometry" />
        </mxCell>
        <mxCell id="ML6KB4nxG-FTSVg3zZ-t-15" value="" style="ellipse;whiteSpace=wrap;html=1;aspect=fixed;fillColor=#dae8fc;strokeColor=#6c8ebf;" vertex="1" parent="ML6KB4nxG-FTSVg3zZ-t-16">
          <mxGeometry x="3" y="103" width="14" height="14" as="geometry" />
        </mxCell>
        <mxCell id="ML6KB4nxG-FTSVg3zZ-t-18" value="" style="rounded=0;whiteSpace=wrap;html=1;fillColor=#d80073;fontColor=#ffffff;strokeColor=#A50040;" vertex="1" parent="1">
          <mxGeometry x="400" y="680" width="80" height="28" as="geometry" />
        </mxCell>
        <mxCell id="ML6KB4nxG-FTSVg3zZ-t-17" value="" style="ellipse;whiteSpace=wrap;html=1;aspect=fixed;fillColor=#dae8fc;strokeColor=#6c8ebf;" vertex="1" parent="1">
          <mxGeometry x="441" y="682" width="24" height="24" as="geometry" />
        </mxCell>
        <mxCell id="ML6KB4nxG-FTSVg3zZ-t-23" value="" style="ellipse;whiteSpace=wrap;html=1;aspect=fixed;fillColor=#d5e8d4;strokeColor=#82b366;" vertex="1" parent="1">
          <mxGeometry x="229" y="572" width="28" height="28" as="geometry" />
        </mxCell>
        <mxCell id="ML6KB4nxG-FTSVg3zZ-t-24" value="" style="ellipse;whiteSpace=wrap;html=1;aspect=fixed;fillColor=#f8cecc;strokeColor=#b85450;" vertex="1" parent="1">
          <mxGeometry x="172" y="572" width="28" height="28" as="geometry" />
        </mxCell>
        <mxCell id="ML6KB4nxG-FTSVg3zZ-t-26" value="" style="ellipse;whiteSpace=wrap;html=1;aspect=fixed;fillColor=#ffe6cc;strokeColor=#d79b00;" vertex="1" parent="1">
          <mxGeometry x="166.5" y="427" width="14" height="14" as="geometry" />
        </mxCell>
        <mxCell id="ML6KB4nxG-FTSVg3zZ-t-30" value="&lt;div&gt;Small Snake Plants: &lt;br&gt;&lt;/div&gt;0.5x Blue Plastic Cup each. Try not to disturb the soil too much" style="text;strokeColor=#6c8ebf;align=center;fillColor=#dae8fc;html=1;verticalAlign=middle;whiteSpace=wrap;rounded=0;" vertex="1" parent="1">
          <mxGeometry x="700" y="498.5" width="190" height="61.5" as="geometry" />
        </mxCell>
        <mxCell id="ML6KB4nxG-FTSVg3zZ-t-31" value="&lt;div&gt;Dragon Plant: &lt;br&gt;&lt;/div&gt;About 400ml, or 3-4x BPC " style="text;strokeColor=#9673a6;align=center;fillColor=#e1d5e7;html=1;verticalAlign=middle;whiteSpace=wrap;rounded=0;" vertex="1" parent="1">
          <mxGeometry x="590" y="720" width="160" height="40" as="geometry" />
        </mxCell>
        <mxCell id="ML6KB4nxG-FTSVg3zZ-t-32" value="&lt;div&gt;Big Snake Plant: &lt;br&gt;&lt;/div&gt;1.5-2x Blue Plastic Cup" style="text;strokeColor=#6c8ebf;align=center;fillColor=#dae8fc;html=1;verticalAlign=middle;whiteSpace=wrap;rounded=0;" vertex="1" parent="1">
          <mxGeometry x="400" y="720" width="140" height="40" as="geometry" />
        </mxCell>
        <mxCell id="ML6KB4nxG-FTSVg3zZ-t-33" value="" style="group" vertex="1" connectable="0" parent="1">
          <mxGeometry x="200" y="634" width="140" height="152" as="geometry" />
        </mxCell>
        <mxCell id="ML6KB4nxG-FTSVg3zZ-t-19" value="" style="rounded=0;whiteSpace=wrap;html=1;rotation=-90;" vertex="1" parent="ML6KB4nxG-FTSVg3zZ-t-33">
          <mxGeometry x="29" y="35" width="76" height="6" as="geometry" />
        </mxCell>
        <mxCell id="ML6KB4nxG-FTSVg3zZ-t-22" value="" style="verticalLabelPosition=bottom;verticalAlign=top;html=1;shape=mxgraph.basic.arc;startAngle=0;endAngle=0.25;" vertex="1" parent="ML6KB4nxG-FTSVg3zZ-t-33">
          <mxGeometry width="140" height="152" as="geometry" />
        </mxCell>
        <mxCell id="ML6KB4nxG-FTSVg3zZ-t-34" value="&lt;div&gt;Spider Plant: &lt;br&gt;&lt;/div&gt;&lt;div&gt;0.5-0.75x Blue&lt;/div&gt;&lt;div&gt;Plastic Cup&lt;/div&gt;" style="text;strokeColor=#d79b00;align=center;fillColor=#ffe6cc;html=1;verticalAlign=middle;whiteSpace=wrap;rounded=0;" vertex="1" parent="1">
          <mxGeometry x="30" y="417" width="120" height="53" as="geometry" />
        </mxCell>
        <mxCell id="ML6KB4nxG-FTSVg3zZ-t-39" value="" style="rounded=0;whiteSpace=wrap;html=1;rotation=65;" vertex="1" parent="1">
          <mxGeometry x="175" y="540" width="21" height="30" as="geometry" />
        </mxCell>
        <mxCell id="ML6KB4nxG-FTSVg3zZ-t-35" value="&lt;div&gt;Prayer Plant: &lt;br&gt;&lt;/div&gt;1x Blue Plastic Cup" style="text;strokeColor=#d6b656;align=center;fillColor=#fff2cc;html=1;verticalAlign=middle;whiteSpace=wrap;rounded=0;" vertex="1" parent="1">
          <mxGeometry x="30" y="528" width="120" height="40" as="geometry" />
        </mxCell>
        <mxCell id="ML6KB4nxG-FTSVg3zZ-t-36" value="&lt;div&gt;Jacob&#39;s Fern:&lt;br&gt;&lt;/div&gt;1x Blue Plastic Cup" style="text;strokeColor=#b85450;align=center;fillColor=#f8cecc;html=1;verticalAlign=middle;whiteSpace=wrap;rounded=0;" vertex="1" parent="1">
          <mxGeometry x="30" y="586" width="120" height="40" as="geometry" />
        </mxCell>
        <mxCell id="ML6KB4nxG-FTSVg3zZ-t-37" value="&lt;div&gt;Peace Lily:&lt;br&gt;&lt;/div&gt;1x Blue Plastic Cup" style="text;strokeColor=#82b366;align=center;fillColor=#d5e8d4;html=1;verticalAlign=middle;whiteSpace=wrap;rounded=0;" vertex="1" parent="1">
          <mxGeometry x="30" y="640" width="120" height="40" as="geometry" />
        </mxCell>
        <mxCell id="ML6KB4nxG-FTSVg3zZ-t-38" value="" style="rounded=0;whiteSpace=wrap;html=1;" vertex="1" parent="1">
          <mxGeometry x="161.75" y="618" width="23.5" height="72" as="geometry" />
        </mxCell>
        <mxCell id="ML6KB4nxG-FTSVg3zZ-t-25" value="" style="ellipse;whiteSpace=wrap;html=1;aspect=fixed;fillColor=#fff2cc;strokeColor=#d6b656;" vertex="1" parent="1">
          <mxGeometry x="176" y="545" width="20" height="20" as="geometry" />
        </mxCell>
      </root>
    </mxGraphModel>
  </diagram>
</mxfile>
